<?xml version="1.0" encoding="UTF-8"?>
<svg version="1.1" xmlns="http://www.w3.org/2000/svg" width="2200" height="1100">
<path d="M0 0 C1.22022801 -0.00445784 2.44045601 -0.00891569 3.69766062 -0.01350862 C5.05890955 -0.01341932 6.42015846 -0.01322946 7.78140736 -0.01294994 C9.22197612 -0.01624861 10.66254396 -0.01997418 12.10311061 -0.02409142 C16.07143989 -0.03411925 20.03975404 -0.03782947 24.00809419 -0.04048073 C28.28431459 -0.04438146 32.56052298 -0.05395996 36.83673573 -0.0626936 C47.16857324 -0.08246448 57.50041174 -0.09252498 67.83226344 -0.10142139 C72.69615936 -0.10580324 77.56005419 -0.11117031 82.42394924 -0.11641026 C98.58997052 -0.13342311 114.75599111 -0.1479177 130.92201996 -0.155159 C135.11805376 -0.15706893 139.31408756 -0.15898926 143.51012135 -0.16094494 C145.07450162 -0.16167055 145.07450162 -0.16167055 146.67048553 -0.16241082 C163.56842433 -0.17071267 180.46629237 -0.19605197 197.36420026 -0.22852562 C214.70776562 -0.26158434 232.051295 -0.27960668 249.39489204 -0.28280324 C259.13477452 -0.28496943 268.87455383 -0.29373402 278.61440563 -0.31926441 C286.90866439 -0.34095518 295.2027949 -0.34902983 303.4970788 -0.33929763 C307.72897284 -0.33474822 311.9606022 -0.33667625 316.19246006 -0.35605907 C320.06831262 -0.37365799 323.94370676 -0.37271991 327.81956396 -0.35716178 C329.22001669 -0.35478071 330.62050089 -0.35913522 332.02090546 -0.37099043 C341.44044557 -0.44577841 348.79696083 0.25783057 355.84727955 7.13812733 C360.17063165 11.74570094 362.27545259 17.28643694 364.6246233 23.07172108 C365.58012745 25.32812956 366.53845999 27.58334242 367.4996233 29.83734608 C368.18991627 31.46833241 368.18991627 31.46833241 368.89415455 33.13226795 C376.90433325 51.72991849 387.31224107 69.43115342 397.6324358 86.81781483 C422.34265042 128.4741056 444.65833486 169.33463646 444.5621233 218.88422108 C444.56324116 219.70450794 444.56435902 220.52479481 444.56551075 221.36993885 C444.55123767 243.04114647 442.3353814 264.57185636 439.84605885 286.08124256 C437.1347883 311.36587574 437.78892675 338.30085086 443.1871233 363.13422108 C443.39079517 364.12841053 443.59446705 365.12259998 443.8043108 366.14691639 C452.57018233 408.5017679 470.57988573 448.80428297 490.1871233 487.13422108 C490.46169361 487.89476795 490.73626392 488.65531483 491.01915455 489.43890858 C492.86899577 492.12396239 495.21668946 492.25511307 498.3121233 493.00922108 C506.65799811 495.38586093 512.60172465 498.89641001 516.9761858 506.54437733 C518.88058777 510.61734026 520.4266278 514.82019603 521.9395647 519.05072498 C523.78167828 524.19444512 525.96954138 529.05052239 528.4996233 533.89984608 C529.1871233 536.13422108 529.1871233 536.13422108 528.5621233 538.24359608 C526.98744877 540.40877356 525.40286808 541.64064497 523.1871233 543.13422108 C511.95817154 551.34362278 499.00675042 561.0892598 493.1871233 574.13422108 C492.65907035 577.56656526 492.82187296 579.28957967 494.1871233 582.44672108 C496.7898477 584.64276979 498.84127098 585.10999386 502.20665455 585.34906483 C504.44529431 585.27320522 504.44529431 585.27320522 506.7496233 583.25922108 C507.5539983 582.22797108 508.3583733 581.19672108 509.1871233 580.13422108 C509.74270924 579.43168201 510.29829517 578.72914295 510.87071705 578.00531483 C513.4529871 574.72333289 515.98314501 571.40435449 518.4996233 568.07172108 C523.47930615 562.62881191 529.57125867 557.47479746 536.1871233 554.13422108 C540.17683631 555.46412541 541.35905132 557.88919147 543.4371233 561.32172108 C543.81352955 561.86763905 544.1899358 562.41355701 544.5777483 562.97601795 C547.83247315 568.37862188 547.18590174 573.11612755 546.55479908 579.22968006 C545.96906389 585.44990772 546.00111213 591.66151637 546.00182056 597.90497303 C545.9996005 600.09420785 545.98125372 602.28296308 545.96251392 604.4721117 C545.95958437 605.88942773 545.95759665 607.30674609 545.95665455 608.72406483 C545.95049122 610.60919788 545.95049122 610.60919788 545.94420338 612.53241444 C546.20254775 616.36292147 546.85194436 619.53549007 548.1871233 623.13422108 C551.70536841 625.47971782 553.04488024 625.71413511 557.1871233 625.13422108 C560.67826084 622.44492023 562.05036976 621.00998835 562.73888111 616.60077381 C562.73139248 615.25607302 562.69714253 613.91133235 562.6402483 612.56781483 C562.62607868 611.49395275 562.62607868 611.49395275 562.61162281 610.39839649 C562.57717401 608.12165678 562.50844709 605.84757662 562.4371233 603.57172108 C562.38704985 601.29265709 562.34407635 599.01361972 562.30547047 596.73433399 C562.27920464 595.31955637 562.2450886 593.90489663 562.20207691 592.49052906 C562.11929227 589.20117629 562.15346671 586.27767672 563.1871233 583.13422108 C566.9994918 582.6540045 570.81204152 582.17524126 574.6246233 581.69672108 C575.69390064 581.56201405 576.76317799 581.42730701 577.86485767 581.28851795 C583.96783273 580.52331313 590.07210913 579.79652019 596.1871233 579.13422108 C596.17664967 579.96147694 596.16617603 580.7887328 596.15538502 581.64105701 C596.11381417 585.38874747 596.08779338 589.1363894 596.0621233 592.88422108 C596.04536549 594.1861742 596.02860767 595.48812733 596.01134205 596.82953358 C596.00489674 598.0799242 595.99845142 599.33031483 595.9918108 600.61859608 C595.98133717 601.77069569 595.97086353 602.9227953 595.96007252 604.10980701 C596.18323301 607.08240071 596.47231209 608.71932961 598.1871233 611.13422108 C601.47498471 612.72845828 601.47498471 612.72845828 605.1871233 613.13422108 C607.62965651 612.01915157 609.30068885 611.02065553 611.1871233 609.13422108 C611.32069414 607.56875576 611.39060621 605.99776524 611.43321705 604.42718983 C611.46447681 603.45298084 611.49573658 602.47877186 611.52794361 601.47504139 C611.55984791 600.43444569 611.5917522 599.39384998 611.6246233 598.32172108 C612.40511012 578.3547786 612.40511012 578.3547786 614.1871233 574.13422108 C616.4918108 572.47406483 616.4918108 572.47406483 619.1871233 571.13422108 C619.91673267 570.76941639 620.64634205 570.4046117 621.3980608 570.02875233 C622.11220142 569.67168201 622.82634205 569.3146117 623.5621233 568.94672108 C628.56928122 566.17786223 631.6639955 562.56445304 635.1871233 558.13422108 C636.44848065 556.62624396 637.71910358 555.12596054 638.9996233 553.63422108 C639.56294361 552.96390858 640.12626392 552.29359608 640.70665455 551.60297108 C642.1871233 550.13422108 642.1871233 550.13422108 644.1871233 550.13422108 C644.1871233 549.47422108 644.1871233 548.81422108 644.1871233 548.13422108 C659.0147289 534.29324323 678.00514558 521.60191593 698.9449358 521.98968983 C709.94019309 522.69844335 720.62823753 528.32320135 728.08165455 536.30609608 C736.36251836 547.42918588 740.54403465 559.51103957 740.5621233 573.32172108 C740.58661549 574.28658436 740.61110767 575.25144764 740.63634205 576.2455492 C740.68467659 588.33723979 735.82316384 598.5591731 730.6246233 609.25922108 C730.0986858 610.34453114 729.5727483 611.42984119 729.0308733 612.54803944 C721.30728457 628.23715786 712.04049474 642.44551725 701.1871233 656.13422108 C700.55483814 656.94222157 700.55483814 656.94222157 699.90977955 657.7665453 C688.22765783 672.58847049 674.3738567 686.90474017 659.1871233 698.13422108 C658.56756763 698.60311756 657.94801197 699.07201405 657.30968189 699.55511951 C642.92094656 710.42690874 628.08735895 720.13252978 611.58580494 727.48065662 C599.65759074 732.82251107 591.69959832 738.3557609 583.51866627 748.52045155 C561.70261022 774.96051947 518.17064664 788.07296625 485.39415455 791.41937733 C472.64761418 791.88546704 461.40369026 787.12159806 452.0621233 778.63422108 C434.98824027 760.46322107 427.64196284 730.94868454 420.8746233 707.69672108 C420.53688892 706.54832752 420.19915455 705.39993397 419.8511858 704.21674061 C417.94279765 697.50937438 416.54043284 690.89959237 415.59264088 683.98944569 C415.33496549 682.17516895 415.02915085 680.36659197 414.65977955 678.57172108 C414.17799347 676.08713831 413.95231691 673.69419352 413.79259205 671.16937733 C411.83039099 642.84668002 408.49858453 607.26549751 387.0699358 586.24750233 C384.53282607 583.39983353 383.25270624 580.83937759 383.10509205 577.00140858 C383.66115891 572.89134917 384.24421416 570.94336162 387.1871233 568.13422108 C386.74388274 564.44795035 385.54909792 561.4597081 383.9293108 558.14203358 C383.47241871 557.19827869 383.01552662 556.25452381 382.54478931 555.2821703 C382.05550953 554.28459705 381.56622974 553.28702381 381.0621233 552.25922108 C380.0475059 550.16040508 379.03318228 548.06144703 378.01915455 545.96234608 C376.74014222 543.32802504 375.46012533 540.69421172 374.17686939 538.06195545 C368.38136764 526.13257691 363.44963432 513.83405429 358.41904163 501.56949329 C356.15149994 496.04180332 353.86240107 490.5233551 351.5621233 485.00922108 C351.17604908 484.0831908 350.78997486 483.15716053 350.39220142 482.20306873 C338.6946733 454.16447586 326.94183478 426.14887907 315.1871233 398.13422108 C314.8060442 398.77109852 314.4249651 399.40797596 314.03233814 400.06415272 C289.6267643 440.8361175 264.83694149 481.36438239 236.77623463 519.7587328 C235.2338944 521.87509732 233.7092306 524.00327086 232.1871233 526.13422108 C231.61147633 526.91950184 231.03582935 527.7047826 230.44273853 528.51385975 C229.88658863 529.29865711 229.33043873 530.08345448 228.7574358 530.89203358 C228.24841724 531.59860096 227.73939869 532.30516834 227.21495533 533.03314686 C225.63000078 536.27308008 226.54231643 538.51421412 227.58165455 541.82172108 C229.55949335 549.37578928 226.66487829 557.44537601 223.1871233 564.13422108 C221.82322695 566.11733447 220.3805974 567.9508751 218.82384205 569.78656483 C217.00111045 572.20301778 217.00111045 572.20301778 215.83165455 575.63812733 C214.22827713 579.69600617 212.65114297 583.34303981 209.1871233 586.13422108 C202.84747214 588.45078712 195.8608816 588.40013065 189.18907642 588.84174061 C184.53449737 589.29523652 180.12442377 590.39417484 175.6246233 591.63422108 C174.85851734 591.83668446 174.09241138 592.03914783 173.3030901 592.24774647 C168.99738298 593.44182276 165.07818759 594.87992189 161.1871233 597.13422108 C159.64125454 600.22595859 159.89352809 602.7285166 160.1871233 606.13422108 C162.05970139 608.76970135 163.34641668 609.86525375 166.4214983 610.84906483 C169.95067537 611.2129489 172.37812222 610.40719867 175.7496233 609.32172108 C184.44931087 606.68628113 193.05776053 604.71925004 202.1871233 605.13422108 C201.52929159 610.5674237 200.83025569 615.9843632 199.9371233 621.38422108 C199.84044361 622.0777367 199.74376392 622.77125233 199.64415455 623.48578358 C199.05551559 626.93825029 198.4602373 628.86110708 195.9605608 631.36078358 C195.04532642 631.94601795 194.13009205 632.53125233 193.1871233 633.13422108 C192.21517017 633.7967992 191.24321705 634.45937733 190.2418108 635.14203358 C189.19251392 635.84070545 188.14321705 636.53937733 187.0621233 637.25922108 C177.47816682 643.79591472 165.93358056 651.89484929 162.1246233 663.32172108 C162.20135046 666.77444341 163.09426824 668.42126082 165.1871233 671.13422108 C168.47147187 672.77639536 171.85568727 672.28215841 175.4371233 671.88422108 C177.85094543 670.84972588 178.0359747 669.4614529 179.1871233 667.13422108 C185.15064935 659.27095681 193.80876281 649.80925313 203.1871233 646.13422108 C207.70449034 646.8491465 210.34472064 649.66036408 213.6246233 652.63422108 C219.39270823 657.75586947 225.34498676 662.13514313 231.8355608 666.29437733 C232.61157642 666.90152576 233.38759205 667.5086742 234.1871233 668.13422108 C234.1871233 671.13422108 234.1871233 671.13422108 232.7183733 672.64203358 C232.0480608 673.17570545 231.3777483 673.70937733 230.6871233 674.25922108 C223.68410364 680.13432075 215.38851941 687.97031197 212.2496233 696.75922108 C212.16963789 699.79866659 212.62985795 701.51518389 214.1871233 704.13422108 C217.19299241 706.02362452 219.04125089 706.13956806 222.59727955 706.00922108 C227.10407005 704.91072154 227.93742304 703.58750217 230.4371233 699.75922108 C235.06756621 693.11485265 240.22466899 687.62690626 246.1871233 682.13422108 C246.97731861 681.37109608 247.76751392 680.60797108 248.58165455 679.82172108 C256.79728992 674.50064989 274.71041438 680.08134691 283.83165455 681.90765858 C298.714087 685.14308509 313.16523853 690.88556907 322.47227955 703.46625233 C332.26202319 718.69722023 336.13183206 739.37316505 332.57384205 757.20843983 C326.9331141 772.63968237 314.61376172 782.50881064 300.34727955 789.37250233 C290.95959846 793.52318883 281.45459529 795.00402355 271.3121233 796.19672108 C270.27281666 796.32270679 270.27281666 796.32270679 269.21251392 796.45123768 C259.22216502 797.65947121 249.22437902 798.64669677 239.1871233 799.38422108 C237.57281422 799.50422474 237.57281422 799.50422474 235.92589283 799.62665272 C222.25360548 800.53358461 208.66713821 800.21845564 194.9996233 799.38422108 C194.30210957 799.34198414 193.60459583 799.2997472 192.88594532 799.25623035 C180.40145587 798.49052011 167.92880166 797.55195764 155.46480274 796.50616932 C153.51368493 796.3436749 151.56220726 796.18543577 149.61037159 796.03180408 C120.71771739 793.73602945 96.3843195 784.03713375 74.1871233 765.13422108 C72.56446074 763.86040454 70.93938817 762.58965301 69.3121233 761.32172108 C64.37817979 757.37765965 59.73973767 753.14294354 55.1168108 748.84515858 C52.54567195 746.46599809 49.93911152 744.13863855 47.3121233 741.82172108 C41.26625341 736.40297546 35.58341646 730.61945295 29.8812151 724.84418201 C26.29802533 721.22742728 22.68901628 717.63732851 19.06406116 714.06245899 C16.96419299 711.98966514 14.86991861 709.91125385 12.77574635 707.83270741 C11.6749879 706.74204019 10.57244585 705.65317013 9.46812916 704.56610584 C7.85792341 702.98031528 6.25440455 701.38801272 4.65196705 699.79437733 C3.91900661 699.07690075 3.91900661 699.07690075 3.1712389 698.3449297 C0.02260828 695.19732403 -2.52624294 691.95515141 -4.8128767 688.13422108 C-4.8128767 687.47422108 -4.8128767 686.81422108 -4.8128767 686.13422108 C-5.4728767 686.13422108 -6.1328767 686.13422108 -6.8128767 686.13422108 C-7.61068231 684.13666199 -8.40080095 682.13603223 -9.1878767 680.13422108 C-9.62873608 679.02047108 -10.06959545 677.90672108 -10.5238142 676.75922108 C-16.13687626 660.9746102 -15.91253966 643.15806116 -8.7869978 627.94379139 C-3.78209621 617.51744439 1.82486415 608.0750314 9.1871233 599.13422108 C9.95153736 598.19191639 10.71595142 597.2496117 11.50352955 596.27875233 C13.00861545 594.43241176 14.52129993 592.59223154 16.04259205 590.75922108 C18.71869746 587.48355107 21.25935213 584.11473487 23.77696705 580.71625233 C24.24231861 580.19418201 24.70767017 579.6721117 25.1871233 579.13422108 C25.8471233 579.13422108 26.5071233 579.13422108 27.1871233 579.13422108 C27.5255022 578.31631092 27.5255022 578.31631092 27.87071705 577.48187733 C29.57858888 574.4360881 31.85783885 572.08122107 34.2496233 569.57172108 C38.66851865 564.84555634 42.84215102 559.99152759 46.8980608 554.94672108 C48.88064344 552.51078336 50.91134335 550.12730852 52.96812916 547.75409412 C67.80683823 530.55952098 81.25972976 511.76178712 93.37071705 492.55218983 C95.97326674 489.08772046 98.64117309 486.61272948 102.8121233 485.32172108 C105.1871233 485.13422108 105.1871233 485.13422108 108.1871233 486.13422108 C108.42398853 485.45222645 108.66085377 484.77023182 108.90489674 484.06757069 C110.46284939 480.50344252 112.52226598 477.4022928 114.7027483 474.20062733 C115.15063206 473.53443378 115.59851582 472.86824024 116.05997181 472.18185902 C117.01867742 470.7562962 117.97932248 469.3320361 118.94173145 467.90897083 C121.45777594 464.18679004 123.95715066 460.45345884 126.45665455 456.72015858 C126.95206242 455.98067478 127.44747028 455.24119099 127.95789051 454.47929859 C136.77521778 441.29719525 145.42299546 427.96954663 153.1871233 414.13422108 C152.11397877 414.42426014 152.11397877 414.42426014 151.01915455 414.72015858 C120.19238265 422.77579625 87.84248308 421.04651168 59.7496233 405.19672108 C54.31310876 401.95224906 48.73530875 398.58614864 44.1871233 394.13422108 C44.1871233 393.47422108 44.1871233 392.81422108 44.1871233 392.13422108 C43.5271233 392.13422108 42.8671233 392.13422108 42.1871233 392.13422108 C27.54931115 376.18091927 21.56296711 356.91058519 17.1871233 336.13422108 C15.98700611 335.92668201 14.78688892 335.71914295 13.55040455 335.50531483 C-15.67694365 330.20472668 -49.34421741 319.35788656 -67.6253767 294.19672108 C-77.23609258 279.57664622 -80.63603924 263.92956665 -77.09022045 246.60297108 C-76.17461706 243.96366089 -75.13847841 241.59048307 -73.8128767 239.13422108 C-73.43904858 238.41363514 -73.06522045 237.6930492 -72.6800642 236.95062733 C-67.46192604 227.81024625 -60.69724515 222.66226999 -50.8128767 219.13422108 C-34.96297914 214.96854287 -18.98657212 223.13119509 -4.74891186 229.24384022 C7.77882053 234.81488172 7.77882053 234.81488172 21.1871233 236.13422108 C24.45432413 233.37525149 26.97072403 231.20952553 27.42540455 226.84906483 C27.60996178 219.94273908 26.58330193 215.13599249 23.1871233 209.13422108 C22.82489674 208.49097889 22.46267017 207.8477367 22.08946705 207.18500233 C16.66404856 198.11811652 10.05957871 189.91866757 3.3121233 181.82172108 C-6.82114566 169.60143794 -15.26318991 157.64096537 -21.8128767 143.13422108 C-22.35815014 141.94312733 -22.90342358 140.75203358 -23.46522045 139.52484608 C-29.72915852 124.92492935 -33.25407727 108.91706528 -34.8128767 93.13422108 C-34.91342358 92.1686327 -34.91342358 92.1686327 -35.0160017 91.18353748 C-37.55364781 65.43496959 -35.07116159 31.51096842 -19.9378767 9.44672108 C-14.65630986 3.14786036 -8.14094562 0.0137658 0 0 Z M-1.8128767 21.13422108 C-5.02697177 27.27819579 -5.02697177 27.27819579 -7.2269392 33.50922108 C-7.42972485 34.25800526 -7.63251049 35.00678944 -7.84144115 35.77826405 C-8.13667675 36.94446278 -8.13667675 36.94446278 -8.4378767 38.13422108 C-8.64952465 38.96453846 -8.8611726 39.79485584 -9.07923412 40.65033436 C-17.31664354 74.14422372 -13.74564623 114.1424239 4.1871233 144.13422108 C8.81634667 151.12057695 14.45394823 157.3115425 19.98473072 163.58319569 C35.50101268 181.21543927 51.10924329 201.08786735 50.54259205 225.69672108 C49.73756734 233.48157542 46.72695758 239.87238069 42.1871233 246.13422108 C41.8571233 247.12422108 41.5271233 248.11422108 41.1871233 249.13422108 C39.4371233 250.16156483 39.4371233 250.16156483 37.1871233 251.13422108 C36.3827483 251.54801014 35.5783733 251.9617992 34.7496233 252.38812733 C33.9039983 252.81996326 33.0583733 253.2517992 32.1871233 253.69672108 C30.9186858 254.34834217 30.9186858 254.34834217 29.6246233 255.01312733 C19.17608396 259.81878565 7.06136324 256.65033398 -3.23865795 252.88031483 C-6.36742465 251.62538873 -9.48308598 250.3448081 -12.59510326 249.04926014 C-16.93990177 247.25662421 -21.30994892 245.53156049 -25.6878767 243.82172108 C-26.55541576 243.47214344 -27.42295483 243.1225658 -28.31678295 242.76239491 C-34.80654685 240.23990915 -41.89926864 237.55467493 -48.6253767 240.50922108 C-52.84665769 243.39539924 -54.59019423 247.27243044 -55.8128767 252.13422108 C-57.0937063 262.06395154 -54.74929367 269.12898503 -49.1253767 277.19672108 C-32.47349422 298.06322394 -2.6494749 307.39891823 22.9918108 310.47015858 C53.74974021 313.4888413 87.23645811 308.57410249 112.1871233 289.13422108 C115.35112321 286.43493977 118.38570291 283.61463635 121.3980608 280.74750233 C129.38604075 273.26296649 129.38604075 273.26296649 133.6871233 272.57172108 C137.80278828 273.23316724 139.97164871 274.51697432 143.1871233 277.13422108 C145.11379255 280.02422495 145.81406703 281.57790506 145.6714983 285.02093983 C144.53062967 289.99843924 141.1136299 294.04560111 138.1871233 298.13422108 C137.72580006 298.78326405 137.26447681 299.43230701 136.78917408 300.10101795 C132.96080325 305.4739084 129.07628977 310.80526798 125.1871233 316.13422108 C122.91256424 319.25652952 120.64202579 322.38171215 118.3746233 325.50922108 C117.83249195 326.2550243 117.2903606 327.00082752 116.73180103 327.76923084 C112.91541608 333.04683636 109.31786671 338.41899779 105.87071705 343.94672108 C103.5705318 346.93536084 101.68021641 347.88047538 98.00352955 348.50531483 C93.74233079 348.63086141 91.76534689 348.54379612 88.1871233 346.00922108 C85.92555131 342.75821135 85.1871233 341.08912452 85.1871233 337.13422108 C86.5621233 333.44672108 86.5621233 333.44672108 88.1871233 330.13422108 C88.5171233 329.14422108 88.8471233 328.15422108 89.1871233 327.13422108 C88.13395924 327.39976795 87.08079517 327.66531483 85.99571705 327.93890858 C71.48560802 331.52322072 57.09669238 333.33058473 42.1871233 334.13422108 C44.44981958 350.68229836 50.2725148 366.02751239 63.2730608 377.00531483 C83.20301211 391.5653999 107.37973287 395.67320214 131.6168108 392.67328358 C163.1035042 387.28823541 191.35536412 370.87667814 215.1871233 350.13422108 C215.71853931 349.67193104 216.24995533 349.209641 216.79747486 348.73334217 C220.34281122 345.61894952 223.78382477 342.40201791 227.1871233 339.13422108 C228.07464283 338.28754871 228.07464283 338.28754871 228.98009205 337.42377186 C236.9687426 329.76249127 244.27627842 321.92079842 250.91759205 313.06000233 C255.98454173 306.52791057 255.98454173 306.52791057 259.37071705 305.41937733 C263.12868792 305.0481393 265.56793108 304.88390933 269.1246233 306.32172108 C272.37904054 309.1816635 273.01710345 311.05034454 273.6871233 315.32172108 C272.36806313 325.37955486 262.70966877 333.73987132 256.1871233 341.13422108 C255.70436939 341.68158924 255.22161549 342.22895741 254.72423267 342.79291248 C239.27118497 360.1853487 221.89563761 374.74974612 202.33165455 387.32709217 C194.32013567 392.51856849 189.55354676 397.72474457 184.8121233 405.94672108 C183.76609115 407.7266292 182.71780602 409.50521468 181.66759205 411.28265858 C181.11120045 412.224641 180.55480885 413.16662342 179.98155689 414.13715076 C176.14554776 420.54406888 172.14737546 426.85107998 168.17589283 433.17450428 C167.56987232 434.13960926 166.96385181 435.10471424 166.33946705 436.09906483 C165.80313648 436.95105457 165.26680592 437.80304432 164.71422291 438.68085194 C164.21028004 439.49046375 163.70633717 440.30007557 163.1871233 441.13422108 C162.60648121 441.98057117 162.02583912 442.82692127 161.42760181 443.69891834 C160.00189708 445.99314197 160.00189708 445.99314197 160.30504322 448.24335194 C164.37551659 456.96901378 176.18754383 461.08010159 184.3746233 465.07172108 C185.08177479 465.42083546 185.78892628 465.76994984 186.5175066 466.12964344 C201.22523528 473.38440358 215.93736742 480.28211901 232.1871233 483.13422108 C237.75607363 475.65496987 242.95204554 468.01288262 247.9371233 460.13422108 C248.97800098 458.49791737 248.97800098 458.49791737 250.0399065 456.82855701 C252.09254979 453.5993612 254.14023459 450.36706656 256.1871233 447.13422108 C257.26898302 445.43098711 258.35099925 443.72785255 259.43321705 442.02484608 C262.36554573 437.40361116 265.28132291 432.77217791 268.1871233 428.13422108 C268.70339283 427.31034901 269.21966236 426.48647694 269.75157642 425.63763905 C277.48265183 413.27778186 285.00169844 400.80510247 292.37267017 388.2274828 C293.99740504 385.45765088 295.62624965 382.6902786 297.25687122 379.92390919 C304.34411929 367.89848083 311.39316191 355.85578307 318.2496233 343.69672108 C318.77749439 342.7618285 319.30536549 341.82693592 319.84923267 340.86371326 C322.11896466 336.83588109 324.37432717 332.80172486 326.58946705 328.74359608 C326.94967945 328.09189442 327.30989185 327.44019276 327.68101978 326.76874256 C328.5971242 325.10970658 329.50211381 323.44454538 330.4058733 321.77875233 C332.7156949 318.34947771 335.11816557 315.63186811 339.2496233 314.63812733 C343.6631592 314.7716012 346.64947664 315.220865 350.1871233 318.13422108 C352.44444947 321.83382247 352.44513183 324.3752171 351.85558033 328.57416248 C350.54066213 333.61003987 347.78306108 337.89025238 345.1246233 342.32172108 C344.53987232 343.33041248 343.95512135 344.33910389 343.35265064 345.3783617 C340.79287059 349.7851074 338.18263898 354.15754832 335.51134205 358.49750233 C335.13308277 359.12438953 334.75482349 359.75127674 334.36510181 360.39716053 C333.38867499 362.00793653 332.38659039 363.60308303 331.3824358 365.19672108 C329.07940172 370.85646495 331.40471393 376.18668248 333.61000538 381.56194019 C333.94740742 382.36051945 334.28480946 383.1590987 334.6324358 383.98187733 C334.99022114 384.84615849 335.34800648 385.71043964 335.7166338 386.60091114 C336.90705359 389.46961651 338.10943663 392.33313922 339.3121233 395.19672108 C340.15767172 397.22695063 341.00271307 399.25739144 341.84727955 401.28802967 C349.01491855 418.48357214 356.34549254 435.61006414 363.6754961 452.73685169 C370.81481166 469.42427809 377.79359721 486.14453304 384.1871233 503.13422108 C389.77885628 502.61995548 393.96885919 501.1420762 398.9371233 498.57172108 C399.6366814 498.2152953 400.33623951 497.85886951 401.05699635 497.49164295 C407.22042 494.27015892 412.70077382 490.40045955 418.1871233 486.13422108 C420.05688672 484.75210865 421.93192814 483.37710856 423.8121233 482.00922108 C424.72091236 481.34535389 425.62970142 480.6814867 426.56602955 479.99750233 C428.92185692 478.32279345 431.31352523 476.75085746 433.7496233 475.19672108 C443.77154233 468.70808586 443.77154233 468.70808586 450.1871233 459.13422108 C449.44765196 456.18033982 449.44765196 456.18033982 447.9605608 453.00922108 C447.42344051 451.75079692 446.88641724 450.49233136 446.34947681 449.23383045 C446.05840046 448.56762684 445.7673241 447.90142323 445.46742725 447.21503162 C419.29530496 387.05929299 410.93848429 328.96090393 417.84012318 263.91075611 C419.49066693 248.32424713 420.4916322 232.87739762 420.5621233 217.19672108 C420.56988789 216.42001057 420.57765247 215.64330006 420.58565235 214.84305286 C420.92210192 172.47914887 399.88562354 135.8284364 378.6871233 100.34125233 C368.1932894 82.75984916 358.41478665 64.87768258 349.4996233 46.44672108 C348.95249683 45.31798573 348.40537037 44.18925037 347.84166431 43.02631092 C347.04780323 41.37236317 347.04780323 41.37236317 346.23790455 39.68500233 C345.53661427 38.22574329 345.53661427 38.22574329 344.8211565 36.73700428 C342.48679812 31.59011548 340.36078535 26.35101 338.1871233 21.13422108 C225.9871233 21.13422108 113.7871233 21.13422108 -1.8128767 21.13422108 Z M145.1871233 469.13422108 C143.52325178 471.61467899 141.90834186 474.11056935 140.3121233 476.63422108 C134.79468209 485.27009617 129.03983824 493.72306595 123.1871233 502.13422108 C126.30153905 509.68069002 134.56794628 514.93903334 141.10509205 519.45453358 C144.25137895 520.48165163 147.01964603 519.74793565 150.1871233 519.13422108 C151.98639816 518.82054687 153.78589607 518.50815066 155.5855608 518.19672108 C158.57836771 517.66625001 161.57057834 517.13270181 164.5621233 516.59515858 C179.19530214 514.00829055 193.78771125 512.33441706 208.1871233 517.13422108 C209.52617597 515.34682488 210.85821396 513.55417154 212.1871233 511.75922108 C212.9296233 510.7614867 213.6721233 509.76375233 214.4371233 508.73578358 C216.3731718 506.3802039 216.3731718 506.3802039 216.1871233 504.13422108 C215.16151295 503.79390858 214.1359026 503.45359608 213.07921314 503.10297108 C203.06897445 499.71478497 193.50767601 495.74523959 183.98253345 491.1752367 C181.79582828 490.12640534 179.60341514 489.09034291 177.40977955 488.05609608 C155.12173122 477.50113712 155.12173122 477.50113712 147.6480608 470.45453358 C146.39166352 469.02247146 146.39166352 469.02247146 145.1871233 469.13422108 Z M461.1871233 483.13422108 C460.00971108 484.31258007 458.85524316 485.51388643 457.7105608 486.72406483 C453.44459913 491.04038195 448.87062761 494.37462705 443.8121233 497.69672108 C442.11900798 498.82762242 440.42629474 499.95912598 438.7339983 501.09125233 C437.9380022 501.62057362 437.14200611 502.14989491 436.32188892 502.69525623 C433.8522343 504.35995709 431.45640356 506.1132793 429.0621233 507.88422108 C418.08394513 515.57277095 405.92967765 521.11557081 393.1871233 525.13422108 C393.93155689 526.62308826 393.93155689 526.62308826 394.69102955 528.14203358 C399.18972747 537.13942941 403.68842538 546.13682524 408.1871233 555.13422108 C412.87265784 552.84377367 417.53075504 550.50824851 422.1739397 548.13324451 C423.83297656 547.30996307 425.52787613 546.55936685 427.23009205 545.82953358 C434.83681328 542.22076351 436.64882005 536.54369154 439.55040455 529.11078358 C441.63442398 523.83425019 444.61932016 519.52306678 448.1871233 515.13422108 C448.86517017 514.29375233 449.54321705 513.45328358 450.2418108 512.58734608 C455.53637951 506.36952517 461.41378294 501.66666192 468.1871233 497.13422108 C467.03825217 493.52200463 465.80380021 490.12646311 464.0621233 486.75922108 C463.70892017 486.0708617 463.35571705 485.38250233 462.9918108 484.67328358 C462.59349049 483.91144764 462.59349049 483.91144764 462.1871233 483.13422108 C461.8571233 483.13422108 461.5271233 483.13422108 461.1871233 483.13422108 Z M708.1871233 550.13422108 C707.95203053 550.72267811 707.71693775 551.31113514 707.47472095 551.9174242 C706.77171901 553.67613224 706.06804404 555.43457131 705.36388111 557.19281483 C704.60057099 559.10077341 703.83937405 561.00957928 703.08067799 562.91937733 C679.69092246 621.56709912 635.95838426 666.14746021 578.6246233 692.69672108 C572.50595886 695.66946842 567.99002474 699.63598528 563.1636858 704.30218983 C549.34157106 717.63748222 532.36355634 726.29895029 514.1871233 732.13422108 C513.53775806 732.3449828 512.88839283 732.55574451 512.21934986 732.77289295 C495.04567988 738.17489987 476.92636379 740.34953094 459.1871233 743.13422108 C462.04042663 752.35777718 465.76588354 760.78997277 474.1871233 766.13422108 C481.05303909 768.33088129 486.81201807 768.19714657 493.7496233 766.57172108 C494.61095875 766.38335682 495.4722942 766.19499256 496.35973072 766.0009203 C526.1963691 759.29131126 560.57031963 747.00429535 578.1871233 720.13422108 C578.1871233 719.47422108 578.1871233 718.81422108 578.1871233 718.13422108 C581.6539559 716.37398157 585.16983473 714.72794026 588.69102955 713.07953358 C608.44951814 703.76651501 627.01777464 693.78546366 644.1871233 680.13422108 C645.15263111 679.37238514 646.11813892 678.6105492 647.11290455 677.82562733 C651.88555963 673.99587839 656.39878453 670.08390407 660.64415455 665.67718983 C662.1871233 664.13422108 662.1871233 664.13422108 665.1871233 661.69672108 C668.17395474 659.14546922 670.63257338 656.51074729 673.1636858 653.52093983 C674.61133409 651.81338557 676.08894474 650.13105488 677.5855608 648.46625233 C691.4007988 632.94868725 701.88820567 615.14775772 710.99815845 596.55121326 C711.98546899 594.5441549 713.00479632 592.56061887 714.04259205 590.57953358 C718.3357827 581.70453441 718.84076304 572.04565762 716.1949358 562.58734608 C714.19748377 557.500667 712.24939816 553.84929296 708.1871233 550.13422108 Z M72.5933733 600.95843983 C69.00402627 606.51195731 67.37788199 612.54468472 68.1871233 619.13422108 C70.86556802 627.85633593 74.40236136 633.31393832 82.1871233 638.11859608 C88.14995641 641.14659727 95.56982432 641.25610801 101.8824358 639.29828358 C109.01700942 636.04736165 114.36220802 631.62914663 117.3511858 624.26703358 C119.55931612 616.72098822 119.48474875 611.12466355 116.2105608 604.01312733 C112.72470981 597.74096688 107.72706434 593.82723636 101.3121233 590.75922108 C89.57106755 588.41100993 80.18170979 591.45512219 72.5933733 600.95843983 Z M22.1871233 620.13422108 C16.99830472 626.56445055 13.17800635 633.45335408 10.1871233 641.13422108 C9.92802174 641.79937733 9.66892017 642.46453358 9.40196705 643.14984608 C6.72437539 651.59046614 8.12386557 661.66301232 11.80284595 669.59149647 C16.5607948 678.33118557 24.16689805 685.40254452 31.1871233 692.32172108 C32.03790455 693.1718578 32.8886858 694.02199451 33.7652483 694.89789295 C38.14628101 699.24868848 42.60842572 703.42651892 47.2886858 707.45184803 C50.57203831 710.36151652 53.61651119 713.50350303 56.6871233 716.63422108 C61.695413 721.68543722 66.73885455 726.55727472 72.1871233 731.13422108 C73.20938125 732.02973285 74.23006199 732.92704657 75.2496233 733.82562733 C87.68879666 744.73628074 100.52746344 754.39913613 115.1871233 762.13422108 C116.0739983 762.62793201 116.9608733 763.12164295 117.8746233 763.63031483 C123.08365819 766.30629769 128.25480477 767.70172379 134.01134205 768.63812733 C134.78525791 768.76504963 135.55917377 768.89197193 136.35654163 769.02274036 C147.09282881 770.69027161 157.92323358 771.43245159 168.7496233 772.25922108 C170.88444243 772.42912299 173.01920849 772.59969319 175.15392017 772.77093983 C240.7041464 779.77407141 240.7041464 779.77407141 301.1871233 761.13422108 C304.84120214 757.82814975 307.79446567 754.45940987 310.1871233 750.13422108 C309.84774659 747.98808546 309.84774659 747.98808546 309.1871233 746.13422108 C308.1249358 746.26699451 307.0627483 746.39976795 305.9683733 746.53656483 C304.54128997 746.71495024 303.11420663 746.89333566 301.6871233 747.07172108 C300.99102955 747.1587328 300.2949358 747.24574451 299.5777483 747.33539295 C297.44753997 747.60166899 295.31733163 747.86794504 293.1871233 748.13422108 C291.98394459 748.29704578 290.78076588 748.45987049 289.5411272 748.62762928 C260.34140992 752.26080982 230.5019849 751.72713643 201.32915211 748.37958241 C199.21167549 748.13703344 197.09338005 747.90329907 194.97472095 747.67133045 C152.17427897 742.93200526 152.17427897 742.93200526 133.1871233 736.13422108 C132.08884205 735.77199451 130.9905608 735.40976795 129.8589983 735.03656483 C128.89477955 734.71816639 127.9305608 734.39976795 126.9371233 734.07172108 C125.96259205 733.75074451 124.9880608 733.42976795 123.9839983 733.09906483 C111.20023893 728.68902493 97.5696983 718.80461405 89.4761858 707.81000233 C89.05079517 707.25699451 88.62540455 706.7039867 88.1871233 706.13422108 C87.5271233 706.13422108 86.8671233 706.13422108 86.1871233 706.13422108 C85.91545338 705.55245106 85.64378345 704.97068104 85.36388111 704.37128162 C84.19583842 702.15078885 82.9030652 700.31497917 81.3589983 698.34125233 C80.80897144 697.63218739 80.25894459 696.92312244 79.69225025 696.19257069 C79.11305836 695.45144032 78.53386646 694.71030994 77.9371233 693.94672108 C73.79179135 688.6043414 69.7665234 683.28438409 66.23790455 677.50531483 C65.89114674 677.05285389 65.54438892 676.60039295 65.1871233 676.13422108 C64.5271233 676.13422108 63.8671233 676.13422108 63.1871233 676.13422108 C63.06885181 675.54592518 62.95058033 674.95762928 62.82872486 674.35150623 C62.15836556 672.03483835 61.32301583 670.60638867 59.9214983 668.65765858 C59.45010426 667.99588612 58.97871021 667.33411366 58.4930315 666.65228748 C57.97958179 665.94507557 57.46613209 665.23786366 56.9371233 664.50922108 C56.40498219 663.76720448 55.87284107 663.02518787 55.32457447 662.26068592 C54.19399802 660.68603105 53.06070403 659.11332433 51.92491627 657.5424242 C50.21191189 655.16857267 48.51243194 652.7855818 46.81602955 650.39984608 C40.87112372 642.0647743 34.80477485 633.95132198 28.1871233 626.13422108 C27.18673093 624.90537373 26.18665986 623.67626463 25.1871233 622.44672108 C24.5271233 621.68359608 23.8671233 620.92047108 23.1871233 620.13422108 C22.8571233 620.13422108 22.5271233 620.13422108 22.1871233 620.13422108 Z M466.1871233 658.13422108 C462.32978347 664.35573693 462.3012126 670.96175174 463.1871233 678.13422108 C465.68236805 686.56722416 470.6983211 691.06567812 478.1714983 695.24359608 C484.50424228 698.04178528 491.82608748 697.579032 498.1871233 695.13422108 C504.54020865 691.69005759 508.95550342 686.5639146 512.1871233 680.13422108 C514.23825104 671.8796826 512.94311485 665.62141216 509.1871233 658.13422108 C505.46362596 652.32994581 500.68516084 649.20337937 494.1871233 647.13422108 C482.09306478 645.46657512 473.79392071 648.69615762 466.1871233 658.13422108 Z " fill="#000000" transform="translate(1097.812876701355,-0.13422107696533203)"/>
<path d="M0 0 C41.518125 -0.12375 41.518125 -0.12375 83.875 -0.25 C92.58632324 -0.28641602 101.29764648 -0.32283203 110.27294922 -0.36035156 C120.98266602 -0.37841797 120.98266602 -0.37841797 126.01028442 -0.3817749 C129.4912657 -0.38547317 132.97199827 -0.40034828 136.45291138 -0.42230225 C140.91503353 -0.45006489 145.37680235 -0.45790548 149.83900285 -0.4522891 C151.46286262 -0.45346072 153.08673681 -0.46119768 154.71052146 -0.47686052 C182.00953372 -0.72761013 206.48431256 8.26087013 226.37890625 27.2734375 C245.03934255 46.81010298 251.14962963 72.20641933 250.9765625 98.5703125 C249.72200204 124.31867236 239.86954293 148.12773472 221 166 C202.79609369 181.62728231 180.35789091 189.19419907 156.55688477 189.11352539 C155.40622748 189.11364593 154.2555702 189.11376646 153.07004452 189.11389065 C149.36047849 189.1131467 145.65096325 189.10554204 141.94140625 189.09765625 C139.64514185 189.09618523 137.34887711 189.0951655 135.0526123 189.09460449 C126.55590308 189.08937018 118.05920103 189.07540893 109.5625 189.0625 C81.0690625 189.0315625 81.0690625 189.0315625 52 189 C52 229.59 52 270.18 52 312 C34.84 312 17.68 312 0 312 C0 209.04 0 106.08 0 0 Z M52 47 C52 78.35 52 109.7 52 142 C70.79784558 142.05819888 70.79784558 142.05819888 89.59570312 142.09765625 C97.26573463 142.1095987 104.93571825 142.12370725 112.60571289 142.15087891 C118.79135728 142.17265428 124.97695031 142.18457858 131.16263008 142.18975449 C133.51925019 142.1934418 135.87586758 142.20064217 138.23246574 142.21146011 C141.54037364 142.22603726 144.84807087 142.22797532 148.15600586 142.22705078 C149.60826317 142.23783661 149.60826317 142.23783661 151.08985901 142.24884033 C164.36603817 142.20884787 175.16641761 138.41373439 184.9609375 129.2421875 C194.83428392 118.38528933 198.54808557 104.44422764 198.25 90.04296875 C197.1317709 76.43202395 191.56925764 64.59685961 181.34765625 55.53515625 C174.21134319 50.01081038 165.26962073 46.86935453 156.26066589 46.87974548 C155.33664978 46.87837082 154.41263367 46.87699615 153.46061707 46.87557983 C152.45936295 46.87917511 151.45810883 46.88277039 150.42651367 46.88647461 C148.83070969 46.88625557 148.83070969 46.88625557 147.20266724 46.8860321 C143.69108023 46.886728 140.17954647 46.89450532 136.66796875 46.90234375 C134.23130828 46.90420908 131.79464743 46.90563244 129.35798645 46.90663147 C122.94811974 46.91044761 116.53827572 46.92027022 110.12841797 46.93133545 C102.4358085 46.94336855 94.74319144 46.94795611 87.05057526 46.95378876 C75.36703439 46.96348242 63.68354332 46.98264534 52 47 Z " fill="#000000" transform="translate(465,782)"/>
<path d="M0 0 C24.84474535 19.49110345 37.89587193 46.91822824 42.37768555 77.78808594 C46.46402867 113.5444963 40.85990697 151.93481717 19.02734375 181.375 C3.34495134 201.08409601 -17.12305262 213.82900068 -41.97265625 218.375 C-43.86564453 218.73658203 -43.86564453 218.73658203 -45.796875 219.10546875 C-67.17966782 222.68775065 -91.85940624 217.38298523 -109.97265625 205.375 C-117.71295948 199.8344486 -125.65864989 193.34600954 -130.97265625 185.375 C-131.30265625 219.035 -131.63265625 252.695 -131.97265625 287.375 C-148.80265625 287.375 -165.63265625 287.375 -182.97265625 287.375 C-182.97265625 188.705 -182.97265625 90.035 -182.97265625 -11.625 C-169.11265625 -11.625 -155.25265625 -11.625 -140.97265625 -11.625 C-139.03515625 2.625 -139.03515625 2.625 -138.42993164 7.10253906 C-138.27000732 8.27010742 -138.11008301 9.43767578 -137.9453125 10.640625 C-137.78297119 11.83461914 -137.62062988 13.02861328 -137.45336914 14.25878906 C-137.07783738 16.69316558 -136.63157497 19.00596926 -135.97265625 21.375 C-135.49957031 20.75753906 -135.02648437 20.14007812 -134.5390625 19.50390625 C-102.64073796 -21.34833394 -42.40394749 -31.02983549 0 0 Z M-114.28515625 45.875 C-117.43391941 49.74019523 -119.77877322 53.91013261 -121.97265625 58.375 C-122.40707031 59.24769531 -122.84148438 60.12039063 -123.2890625 61.01953125 C-133.49027019 83.27947997 -132.48379723 111.02916963 -124.22265625 133.75 C-118.21473075 149.25104934 -108.06200736 162.34631565 -93.01953125 169.84765625 C-77.4176325 176.70849121 -62.08214822 177.35902698 -45.97265625 171.375 C-42.03237452 169.35597226 -38.50933634 167.03044751 -34.97265625 164.375 C-34.34101562 163.93671875 -33.709375 163.4984375 -33.05859375 163.046875 C-18.91113112 152.32322753 -12.45777586 133.01709015 -9.4140625 116.30859375 C-6.65310331 91.70429373 -9.13805851 65.74016616 -25.0390625 45.78125 C-36.04008757 33.07745757 -48.809085 25.48276535 -65.76953125 24.15625 C-85.78787068 23.52074716 -101.03008387 31.33826668 -114.28515625 45.875 Z " fill="#000000" transform="translate(992.97265625,495.625)"/>
<path d="M0 0 C14.03739212 12.36971525 22.34827487 29.76668608 24.41625977 48.2956543 C24.88507126 55.94450564 24.8367957 63.61231194 24.82695007 71.27263641 C24.82243016 75.09739054 24.83658455 78.92169229 24.85534668 82.74639893 C24.89499996 91.53657327 24.90777106 100.32670947 24.91887665 109.11695862 C24.93022912 117.85875008 24.95312692 126.6002846 24.9962616 135.34198761 C25.00985789 139.11290769 25.00565951 142.88354492 25.00085449 146.65447998 C25.01018775 148.95121631 25.0203547 151.24794946 25.03149414 153.54467773 C25.02534592 154.5950119 25.01919769 155.64534607 25.01286316 156.72750854 C25.02106583 157.68599701 25.02926849 158.64448547 25.03771973 159.63201904 C25.03843224 160.46519527 25.03914474 161.29837151 25.03987885 162.1567955 C25.50855326 164.82013028 26.28858624 165.67030599 28.41625977 167.2956543 C31.20652647 168.2257432 33.18155519 168.48264199 36.08422852 168.61206055 C36.88884521 168.65016846 37.69346191 168.68827637 38.52246094 168.72753906 C39.53928955 168.77064209 40.55611816 168.81374512 41.60375977 168.8581543 C44.84188477 169.0025293 48.08000977 169.1469043 51.41625977 169.2956543 C51.41625977 182.4956543 51.41625977 195.6956543 51.41625977 209.2956543 C45.97125977 209.3781543 40.52625977 209.4606543 34.91625977 209.5456543 C33.23467773 209.58207031 31.5530957 209.61848633 29.82055664 209.65600586 C16.34666529 209.8243447 1.95077111 208.60942828 -8.58374023 199.2956543 C-9.42291992 198.56088867 -9.42291992 198.56088867 -10.27905273 197.8112793 C-15.33021162 192.68397229 -17.30955316 185.98739946 -19.58374023 179.2956543 C-22.51845585 182.14143914 -25.25132991 185.05257194 -27.89624023 188.1706543 C-40.25406326 202.3395376 -58.49861137 211.6519185 -77.32641602 213.57592773 C-102.99294402 215.30886405 -127.71391162 214.08026341 -150.58374023 201.2956543 C-151.91347255 200.62183371 -153.24546447 199.9523431 -154.58374023 199.2956543 C-154.58374023 198.6356543 -154.58374023 197.9756543 -154.58374023 197.2956543 C-155.17541992 197.0172168 -155.76709961 196.7387793 -156.37670898 196.4519043 C-168.4233757 190.14073023 -174.03024123 177.17940181 -178.83374023 165.1706543 C-183.14151423 148.65752066 -180.58578523 131.47004029 -172.58374023 116.54956055 C-159.69423723 95.57894336 -136.31957137 87.73561389 -113.58374023 82.2956543 C-99.54868423 79.18366849 -85.30395405 77.64609215 -71.03878784 76.04510498 C-48.43292789 74.32475493 -48.43292789 74.32475493 -28.64624023 64.6081543 C-25.29466837 57.31355671 -26.49532017 48.81885172 -28.58374023 41.2956543 C-29.24374023 40.9656543 -29.90374023 40.6356543 -30.58374023 40.2956543 C-31.14061523 39.4087793 -31.69749023 38.5219043 -32.27124023 37.6081543 C-38.01022762 28.88489346 -47.52754606 24.38984941 -57.58374023 22.2956543 C-70.63332191 21.41891009 -84.5178427 20.62275051 -96.58374023 26.2956543 C-97.56213867 26.74295898 -98.54053711 27.19026367 -99.54858398 27.65112305 C-113.90162247 34.8372752 -118.6222432 45.4111632 -123.58374023 60.2956543 C-140.41374023 60.2956543 -157.24374023 60.2956543 -174.58374023 60.2956543 C-172.55655724 35.96945833 -162.04181452 17.15636737 -143.58374023 1.2956543 C-104.77964476 -28.89665508 -38.30889317 -32.29039471 0 0 Z M-29.39624023 98.9831543 C-43.02604757 110.59170764 -64.50237526 111.06009201 -81.45874023 113.2956543 C-104.23468788 115.92430422 -104.23468788 115.92430422 -123.58374023 127.2956543 C-128.23236288 134.00160656 -129.42212602 140.26782328 -128.58374023 148.2956543 C-126.00209111 157.53876075 -121.82888446 162.78075127 -113.80249023 167.8659668 C-104.21293398 172.12540562 -94.58745011 172.81901887 -84.20874023 172.7331543 C-82.9288623 172.72558105 -81.64898438 172.71800781 -80.33032227 172.71020508 C-63.91508007 172.42310075 -49.57208729 168.01759364 -37.58374023 156.2956543 C-37.58374023 155.6356543 -37.58374023 154.9756543 -37.58374023 154.2956543 C-36.92374023 154.2956543 -36.26374023 154.2956543 -35.58374023 154.2956543 C-25.83918461 141.96183103 -25.00792995 127.95352225 -25.33374023 112.9831543 C-25.35385985 111.35622345 -25.37210086 109.72926825 -25.38842773 108.10229492 C-25.4319368 104.16613222 -25.50065175 100.23117223 -25.58374023 96.2956543 C-27.11159038 96.18051133 -27.11159038 96.18051133 -29.39624023 98.9831543 Z " fill="#000000" transform="translate(975.583740234375,884.704345703125)"/>
<path d="M0 0 C1.16144531 0.24492188 2.32289063 0.48984375 3.51953125 0.7421875 C18.06760638 4.18497806 31.46148416 10.43190764 43 20 C43.89976562 20.72574219 44.79953125 21.45148437 45.7265625 22.19921875 C69.82421495 42.73313387 79.60702671 73.46324036 83 104 C83 111.92 83 119.84 83 128 C27.56 128 -27.88 128 -85 128 C-84.34 130.64 -83.68 133.28 -83 136 C-82.72800781 137.25039063 -82.45601562 138.50078125 -82.17578125 139.7890625 C-78.07042641 158.03095595 -69.65613917 173.09532757 -53.75390625 183.53515625 C-37.80758417 192.01724246 -16.93218818 194.43054435 0.5 189.375 C14.81836936 183.84554842 23.02460293 175.50908034 30 162 C30.66 160.35 31.32 158.7 32 157 C48.5 157 65 157 82 157 C81.27660242 162.78718067 80.47851252 167.32794405 78.4375 172.625 C78.17283936 173.31376221 77.90817871 174.00252441 77.63549805 174.7121582 C68.31889504 198.13130883 51.14032256 216.4546466 28.06103516 226.87548828 C13.2798029 233.20300814 -1.09866983 235.51929669 -17.06079102 235.39111328 C-19.43239016 235.37503464 -21.80228017 235.39106048 -24.17382812 235.41015625 C-37.89590685 235.43086419 -50.95317302 233.72663951 -63.8125 228.6875 C-64.61308838 228.38118652 -65.41367676 228.07487305 -66.23852539 227.75927734 C-77.43655011 223.37808279 -86.52984127 217.37430393 -96 210 C-96.84046875 209.38898438 -97.6809375 208.77796875 -98.546875 208.1484375 C-103.78422704 204.299511 -107.39593555 200.38059622 -111 195 C-111.78015297 193.89375678 -112.56150545 192.78835897 -113.34375 191.68359375 C-134.44103133 161.47740235 -139.85687114 125.93633917 -133.64160156 89.92333984 C-128.35836541 61.45704836 -113.65982276 34.47415449 -89.64453125 17.5859375 C-63.6813072 0.02279378 -30.79818472 -6.8615674 0 0 Z M-66.1953125 60.31640625 C-72.78740901 68.12415554 -81 80.39433558 -81 91 C-44.37 91 -7.74 91 30 91 C26.64820171 74.24100856 20.15569714 60.29505247 6 50 C-17.79033264 35.89136098 -47.26152601 40.3382294 -66.1953125 60.31640625 Z " fill="#000000" transform="translate(1607,865)"/>
<path d="M0 0 C32.97804822 -0.02202626 65.95608932 -0.04049778 98.93414268 -0.05106533 C102.82336401 -0.05231611 106.71258533 -0.05361042 110.60180664 -0.05493164 C111.37611356 -0.05519395 112.15042047 -0.05545626 112.94819123 -0.05572652 C125.5022792 -0.06008339 138.05636261 -0.06797102 150.61044788 -0.0771528 C163.48242367 -0.08648888 176.35439707 -0.09205551 189.22637612 -0.09408849 C197.17552393 -0.09546382 205.12465887 -0.09981491 213.07380272 -0.10791647 C219.15884397 -0.11380403 225.24387403 -0.11445908 231.32891846 -0.11310768 C233.83280072 -0.11338421 236.33668344 -0.11539201 238.84056282 -0.11920547 C242.2427616 -0.12413565 245.64490397 -0.1230008 249.04710388 -0.12025452 C250.05194665 -0.12316736 251.05678942 -0.1260802 252.09208196 -0.12908131 C252.99627247 -0.12709026 253.90046297 -0.12509921 254.83205318 -0.12304783 C255.61845399 -0.12342755 256.40485479 -0.12380727 257.21508592 -0.1241985 C259 0 259 0 260 1 C260.09813987 2.43740353 260.1279828 3.87956327 260.12939453 5.3203125 C260.13254669 6.23796387 260.13569885 7.15561523 260.13894653 8.10107422 C260.13591019 9.59791748 260.13591019 9.59791748 260.1328125 11.125 C260.13424759 12.65084717 260.13424759 12.65084717 260.13571167 14.20751953 C260.13639361 16.36295636 260.13453835 18.51839522 260.13037109 20.67382812 C260.12502305 23.98572371 260.13031563 27.29748367 260.13671875 30.609375 C260.13605797 32.69791697 260.13477681 34.78645885 260.1328125 36.875 C260.13483673 37.87289551 260.13686096 38.87079102 260.13894653 39.89892578 C260.13579437 40.81657715 260.13264221 41.73422852 260.12939453 42.6796875 C260.12820114 43.89760986 260.12820114 43.89760986 260.12698364 45.14013672 C260 47 260 47 259 48 C225.34 48 191.68 48 157 48 C156.67 135.45 156.34 222.9 156 313 C153.11088259 313.96303914 151.28698215 314.12655124 148.28491211 314.12939453 C147.33059799 314.13254669 146.37628387 314.13569885 145.39305115 314.13894653 C144.36486771 314.1369223 143.33668427 314.13489807 142.27734375 314.1328125 C140.6927108 314.13424759 140.6927108 314.13424759 139.07606506 314.13571167 C136.84262024 314.13639232 134.60917344 314.13454605 132.37573242 314.13037109 C128.94770898 314.12501595 125.51981626 314.13032273 122.09179688 314.13671875 C119.92447888 314.13605805 117.75716096 314.13477706 115.58984375 314.1328125 C114.04453224 314.13584885 114.04453224 314.13584885 112.46800232 314.13894653 C111.51684036 314.13579437 110.56567841 314.13264221 109.58569336 314.12939453 C108.74646835 314.12859894 107.90724335 314.12780334 107.04258728 314.12698364 C105 314 105 314 103 313 C103 225.55 103 138.1 103 48 C69.01 48 35.02 48 0 48 C0 32.16 0 16.32 0 0 Z " fill="#000000" transform="translate(361,395)"/>
<path d="M0 0 C16.01695495 13.8474343 24.81196128 32.16816295 27.5 53.0625 C27.77048367 58.43734357 27.75392717 63.80292575 27.72705078 69.18237305 C27.72648555 70.78003431 27.72680542 72.37769609 27.72793579 73.97535706 C27.72850592 78.28039988 27.71680705 82.58532958 27.70278788 86.89034629 C27.69022348 91.40132293 27.68910554 95.91230262 27.68673706 100.42329407 C27.68053899 108.95111747 27.66415097 117.47888915 27.64403808 126.00668985 C27.62162681 135.72138402 27.61067254 145.43608076 27.60064721 155.15079439 C27.57978313 175.12139814 27.54312796 195.09193106 27.5 215.0625 C10.67 215.0625 -6.16 215.0625 -23.5 215.0625 C-23.51981934 210.47480713 -23.53963867 205.88711426 -23.56005859 201.16040039 C-23.62697125 186.00109789 -23.70451198 170.8418635 -23.78752708 155.68264103 C-23.83759863 146.49181334 -23.88404211 137.30099432 -23.921875 128.11010742 C-23.95486846 120.09713646 -23.99474012 112.08423393 -24.04279006 104.07133859 C-24.06798205 99.8305778 -24.0897847 95.58986197 -24.10334396 91.34904671 C-24.11623081 87.35258099 -24.13835577 83.35627004 -24.16738319 79.35988998 C-24.17640744 77.89787285 -24.18213708 76.43583082 -24.18421364 74.97378731 C-24.20573462 62.11622219 -25.25040642 51.52729233 -33.75 41.375 C-46.50641484 30.64801479 -58.7401425 29.01401316 -75.04003906 29.84667969 C-87.98660463 30.98252367 -99.75112471 37.65333224 -108.5 47.0625 C-115.40901081 56.30522113 -119.58623742 67.46887397 -119.65821838 79.01667786 C-119.67290161 80.80658142 -119.67290161 80.80658142 -119.68788147 82.63264465 C-119.69363693 83.93312241 -119.6993924 85.23360016 -119.70532227 86.57348633 C-119.7149074 87.96337165 -119.72491785 89.3532541 -119.73532104 90.74313354 C-119.76230739 94.50922784 -119.78335081 98.27533458 -119.80332303 102.04147172 C-119.82522136 105.97995654 -119.8525912 109.91840325 -119.87937927 113.8568573 C-119.92925421 121.31173103 -119.97421229 128.76662597 -120.01740164 136.22154111 C-120.06681849 144.71003339 -120.1217201 153.19848743 -120.17708123 161.6869427 C-120.29082145 179.14542785 -120.39695376 196.60394823 -120.5 214.0625 C-137.33 214.0625 -154.16 214.0625 -171.5 214.0625 C-171.5 140.1425 -171.5 66.2225 -171.5 -9.9375 C-157.97 -9.9375 -144.44 -9.9375 -130.5 -9.9375 C-129.20976749 -5.42168623 -128.21154217 -1.75308927 -127.6484375 2.77734375 C-127.51953125 3.79248047 -127.390625 4.80761719 -127.2578125 5.85351562 C-127.13148437 6.89185547 -127.00515625 7.93019531 -126.875 9 C-126.67390625 10.59811523 -126.67390625 10.59811523 -126.46875 12.22851562 C-126.1409417 14.83927459 -125.81816487 17.45055131 -125.5 20.0625 C-125.03311768 19.45486816 -124.56623535 18.84723633 -124.08520508 18.22119141 C-123.46540771 17.41858887 -122.84561035 16.61598633 -122.20703125 15.7890625 C-121.59577393 14.99580566 -120.9845166 14.20254883 -120.35473633 13.38525391 C-92.55930442 -21.42397858 -34.81499112 -26.62948176 0 0 Z " fill="#000000" transform="translate(1207.5,879.9375)"/>
<path d="M0 0 C1.02480469 0.76376953 1.02480469 0.76376953 2.0703125 1.54296875 C16.97120617 13.37603137 24.9034156 33.41115095 27.54051208 51.76109314 C28.27299271 58.66212122 28.13119799 65.59524653 28.11352539 72.52563477 C28.11324291 74.08359271 28.11340245 75.6415508 28.1139679 77.19950867 C28.11425348 81.40546496 28.10839539 85.61139242 28.10139394 89.81734204 C28.09512061 94.22156453 28.09455346 98.62578777 28.09336853 103.03001404 C28.09026692 111.35955616 28.08206935 119.68908507 28.07201904 128.01862139 C28.06082151 137.50595128 28.05533829 146.99328182 28.05032361 156.48061669 C28.03988571 175.98708679 28.02155483 195.4935388 28 215 C11.17 215 -5.66 215 -23 215 C-23.02187378 208.1796106 -23.02187378 208.1796106 -23.04418945 201.22143555 C-23.09456257 186.18586104 -23.16101352 171.15038919 -23.23571491 156.1149168 C-23.28060774 147.00036974 -23.32003732 137.88586118 -23.34643555 128.77124023 C-23.36946849 120.82341443 -23.40292537 112.87571115 -23.44870156 104.92798263 C-23.47256259 100.72290714 -23.49133788 96.51795245 -23.49761391 92.3128109 C-23.50369717 88.34746739 -23.52381273 84.38243269 -23.55427551 80.4172039 C-23.56300414 78.9689321 -23.56678916 77.52061985 -23.56500816 76.07232285 C-23.55415841 63.1678642 -25.07076339 50.1956456 -34.125 40.3125 C-44.59524852 30.47136513 -57.66536905 29.35295184 -71.32421875 29.625 C-83.34641093 30.18876048 -93.79006657 34.14245456 -103 42 C-103.63164063 42.49886719 -104.26328125 42.99773438 -104.9140625 43.51171875 C-112.90953209 50.50335185 -117.4422103 61.70068438 -119 72 C-119.29576384 76.68590642 -119.31101995 81.36266686 -119.31884766 86.05688477 C-119.32816192 87.45721506 -119.33833279 88.85753987 -119.34928894 90.25785828 C-119.37643434 94.03405285 -119.3916921 97.81021044 -119.40471697 101.58647656 C-119.42041567 105.54230791 -119.44718418 109.49806449 -119.4727478 113.45384216 C-119.51941683 120.93336645 -119.55621817 128.41290499 -119.58942068 135.89249986 C-119.6277263 144.41254447 -119.67711418 152.93251376 -119.72740483 161.45249474 C-119.83054794 178.96828098 -119.91840264 196.48409922 -120 214 C-136.83 214 -153.66 214 -171 214 C-171 140.08 -171 66.16 -171 -10 C-157.47 -10 -143.94 -10 -130 -10 C-128.27744289 -8.27744289 -128.54378674 -5.89336444 -128.28125 -3.5390625 C-128.15363281 -2.42789063 -128.02601562 -1.31671875 -127.89453125 -0.171875 C-127.69923828 1.58382812 -127.69923828 1.58382812 -127.5 3.375 C-127.24248295 5.6748057 -126.98219249 7.97430303 -126.71875 10.2734375 C-126.54762695 11.81136963 -126.54762695 11.81136963 -126.37304688 13.38037109 C-126.06515535 16.10340381 -126.06515535 16.10340381 -125 19 C-124.46632813 18.38253906 -123.93265625 17.76507812 -123.3828125 17.12890625 C-93.27309169 -17.09615702 -38.03976193 -30.52657052 0 0 Z " fill="#000000" transform="translate(1430,880)"/>
<path d="M0 0 C16.83 0 33.66 0 51 0 C51 102.96 51 205.92 51 312 C34.17 312 17.34 312 0 312 C0 209.04 0 106.08 0 0 Z " fill="#000000" transform="translate(731,782)"/>
<path d="M0 0 C1.12986328 0.00064453 2.25972656 0.00128906 3.42382812 0.00195312 C11.67164327 0.04664327 11.67164327 0.04664327 12.8125 1.1875 C12.91081146 2.68620048 12.94048456 4.18948539 12.94189453 5.69140625 C12.94504669 6.64909912 12.94819885 7.60679199 12.95144653 8.59350586 C12.94841019 10.15597046 12.94841019 10.15597046 12.9453125 11.75 C12.94626923 12.81162354 12.94722595 13.87324707 12.94821167 14.96704102 C12.94889364 17.21663472 12.94703819 19.46623037 12.94287109 21.71582031 C12.9375231 25.17257071 12.94281554 28.62919117 12.94921875 32.0859375 C12.94855797 34.26562529 12.94727682 36.445313 12.9453125 38.625 C12.94733673 39.66664307 12.94936096 40.70828613 12.95144653 41.78149414 C12.94671829 43.21803345 12.94671829 43.21803345 12.94189453 44.68359375 C12.94109894 45.53107178 12.94030334 46.3785498 12.93948364 47.25170898 C12.8125 49.1875 12.8125 49.1875 11.8125 50.1875 C10.40494388 50.32065226 8.99131993 50.39088731 7.578125 50.43359375 C6.70027344 50.46493408 5.82242188 50.49627441 4.91796875 50.52856445 C3.97566406 50.56038818 3.03335938 50.59221191 2.0625 50.625 C-20.59038493 51.57585713 -42.21668079 55.82901088 -58.1875 73.1875 C-68.42849062 85.88710274 -71.31095644 101.14808449 -71.39282227 117.06787109 C-71.40272186 118.25868286 -71.41262146 119.44949463 -71.42282104 120.6763916 C-71.44892603 123.92798623 -71.47082198 127.17957605 -71.49082303 130.4312129 C-71.51276003 133.83450875 -71.54011081 137.23776107 -71.56687927 140.64102173 C-71.61670223 147.07942089 -71.66167942 153.51784435 -71.70490164 159.95629084 C-71.75436314 167.2888464 -71.80924808 174.62135825 -71.86458123 181.95387149 C-71.97824157 197.0317083 -72.08439919 212.10958659 -72.1875 227.1875 C-89.3475 227.1875 -106.5075 227.1875 -124.1875 227.1875 C-124.1875 152.9375 -124.1875 78.6875 -124.1875 2.1875 C-110.6575 2.1875 -97.1275 2.1875 -83.1875 2.1875 C-81.74657063 7.23075279 -80.64143986 11.94597838 -79.8984375 17.08984375 C-79.79028717 17.8124086 -79.68213684 18.53497345 -79.57070923 19.2794342 C-79.23027657 21.5606666 -78.89628252 23.84278612 -78.5625 26.125 C-78.33115625 27.68300618 -78.0993894 29.24094961 -77.8671875 30.79882812 C-77.30240076 34.59434449 -76.74338163 38.39066963 -76.1875 42.1875 C-75.73366943 41.4543457 -75.27983887 40.72119141 -74.81225586 39.96582031 C-64.59107442 23.64326758 -52.05577212 11.54614612 -33.8125 4.9375 C-33.14162354 4.6912085 -32.47074707 4.44491699 -31.77954102 4.19116211 C-21.36852714 0.6069208 -10.93990769 -0.12321176 0 0 Z " fill="#000000" transform="translate(703.1875,481.8125)"/>
<path d="M0 0 C0 16.5 0 33 0 50 C-7.26 50.33 -14.52 50.66 -22 51 C-41.43121735 53.68016791 -59.17596248 59.32061038 -72 75 C-81.59187558 89.43063424 -84.28367964 105.16596893 -84.31884766 122.21606445 C-84.33391609 123.9306636 -84.33391609 123.9306636 -84.34928894 125.67990112 C-84.37984857 129.40769 -84.39707968 133.135408 -84.4140625 136.86328125 C-84.43279608 139.46787616 -84.45237109 142.07246515 -84.4727478 144.67704773 C-84.51924641 150.8000016 -84.55612889 156.92297277 -84.58942068 163.04601115 C-84.63162921 170.71237668 -84.686916 178.37864131 -84.7421875 186.04492188 C-84.84055465 199.69655869 -84.91938344 213.34822123 -85 227 C-101.83 227 -118.66 227 -136 227 C-136 152.75 -136 78.5 -136 2 C-122.14 2 -108.28 2 -94 2 C-89.55808656 29.53986333 -89.55808656 29.53986333 -88 41 C-85.25491856 37.62799309 -82.68867045 34.18063539 -80.1875 30.625 C-68.41923311 14.5323791 -51.39316036 5.20232465 -32 1 C-21.43538401 -0.50923086 -10.67187373 0 0 0 Z " fill="#000000" transform="translate(1839,868)"/>
<path d="M0 0 C16.83 0 33.66 0 51 0 C51 73.92 51 147.84 51 224 C48.13157786 224.95614071 46.33799187 225.12652444 43.36083984 225.12939453 C42.42331879 225.13254669 41.48579773 225.13569885 40.51986694 225.13894653 C39.00569687 225.13591019 39.00569687 225.13591019 37.4609375 225.1328125 C36.4243399 225.13376923 35.38774231 225.13472595 34.31973267 225.13571167 C32.12917012 225.13639222 29.93860555 225.13454665 27.74804688 225.13037109 C24.38146479 225.12501029 21.01501548 225.13032589 17.6484375 225.13671875 C15.5234372 225.13605816 13.39843699 225.13477739 11.2734375 225.1328125 C9.75319473 225.13584885 9.75319473 225.13584885 8.20223999 225.13894653 C6.80541489 225.13421829 6.80541489 225.13421829 5.38037109 225.12939453 C4.55669037 225.12859894 3.73300964 225.12780334 2.8843689 225.12698364 C1 225 1 225 0 224 C-0.0979454 221.11743397 -0.12992191 218.25882417 -0.12025452 215.37583923 C-0.12110894 214.46026908 -0.12196337 213.54469893 -0.12284368 212.60138422 C-0.12450129 209.50889494 -0.11897254 206.41645896 -0.11352539 203.32397461 C-0.11324355 201.11695863 -0.11340118 198.90994256 -0.1139679 196.70292664 C-0.11425601 190.69077275 -0.10835711 184.67863863 -0.10139394 178.66648936 C-0.09516263 172.39106899 -0.09455678 166.11564821 -0.09336853 159.84022522 C-0.09060884 149.30062523 -0.08435333 138.76103175 -0.07543945 128.22143555 C-0.06626602 117.36368852 -0.05918485 106.50594347 -0.05493164 95.64819336 C-0.05453756 94.64495693 -0.05453756 94.64495693 -0.05413551 93.6214531 C-0.05283051 90.26629178 -0.05156679 86.91113046 -0.05032361 83.55596912 C-0.03985772 55.70397317 -0.02151142 27.85198976 0 0 Z " fill="#000000" transform="translate(731,484)"/>
<path d="M0 0 C6.23245984 5.09812666 10.09992594 11.24538356 11.625 19.1875 C12.71903447 30.46139178 11.31148704 40.0168912 4.125 49 C-2.39353772 55.65010454 -9.49597888 59.36166173 -18.82666016 59.79418945 C-26.02191349 59.85311542 -32.2490829 59.18809892 -38.375 55.1875 C-39.41527344 54.56875 -39.41527344 54.56875 -40.4765625 53.9375 C-47.2076027 49.50055964 -51.50009822 42.90591303 -53.75 35.1875 C-55.65416021 25.28983391 -54.24538301 16.51796208 -48.94921875 7.85546875 C-43.95180448 0.89524578 -37.38371914 -4.34413134 -28.9453125 -6.40625 C-18.28239626 -8.09157415 -8.90295591 -6.23039879 0 0 Z " fill="#000000" transform="translate(777.375,395.8125)"/>
</svg>
